<mxfile host="app.diagrams.net" agent="Mozilla/5.0 (Windows NT 10.0; Win64; x64) AppleWebKit/537.36 (KHTML, like Gecko) Chrome/130.0.0.0 Safari/537.36" version="25.0.3">
  <diagram name="Trang-1" id="wSwTjTDbP9QSW4C1Lc9O">
    <mxGraphModel grid="0" page="0" gridSize="10" guides="1" tooltips="1" connect="1" arrows="1" fold="1" pageScale="1" pageWidth="827" pageHeight="1169" math="0" shadow="0">
      <root>
        <mxCell id="0" />
        <mxCell id="1" parent="0" />
        <mxCell id="ckZpL8dPmvNHeQL6rXLR-1" value="&lt;font style=&quot;font-size: 18px;&quot;&gt;Koi Fram Shop&lt;/font&gt;" style="swimlane;whiteSpace=wrap;html=1;startSize=63;" vertex="1" parent="1">
          <mxGeometry x="-48" y="3" width="799" height="575" as="geometry" />
        </mxCell>
        <mxCell id="ckZpL8dPmvNHeQL6rXLR-12" value="Tìm Kiếm Cá Koi, yêu cầu báo giá" style="ellipse;whiteSpace=wrap;html=1;" vertex="1" parent="ckZpL8dPmvNHeQL6rXLR-1">
          <mxGeometry x="123" y="103" width="164" height="80" as="geometry" />
        </mxCell>
        <mxCell id="ckZpL8dPmvNHeQL6rXLR-13" value="Đăng kí tài Khoản" style="ellipse;whiteSpace=wrap;html=1;" vertex="1" parent="ckZpL8dPmvNHeQL6rXLR-1">
          <mxGeometry x="235" y="243" width="172" height="80" as="geometry" />
        </mxCell>
        <mxCell id="ckZpL8dPmvNHeQL6rXLR-14" value="Xem chi tiết cá koi" style="ellipse;whiteSpace=wrap;html=1;" vertex="1" parent="ckZpL8dPmvNHeQL6rXLR-1">
          <mxGeometry x="114" y="390" width="170" height="80" as="geometry" />
        </mxCell>
        <mxCell id="ckZpL8dPmvNHeQL6rXLR-15" value="Nhập thông tin cá nhân để tạo tài khoản" style="ellipse;whiteSpace=wrap;html=1;" vertex="1" parent="ckZpL8dPmvNHeQL6rXLR-1">
          <mxGeometry x="514" y="167" width="204" height="80" as="geometry" />
        </mxCell>
        <mxCell id="ckZpL8dPmvNHeQL6rXLR-16" value="Xác nhận email" style="ellipse;whiteSpace=wrap;html=1;" vertex="1" parent="ckZpL8dPmvNHeQL6rXLR-1">
          <mxGeometry x="514" y="313" width="202" height="85" as="geometry" />
        </mxCell>
        <mxCell id="SKALcGTb6-wJlBO4DA7Z-2" value="&amp;lt;&amp;lt;include&amp;gt;&amp;gt;" style="text;html=1;align=center;verticalAlign=middle;resizable=0;points=[];autosize=1;strokeColor=none;fillColor=none;" vertex="1" parent="ckZpL8dPmvNHeQL6rXLR-1">
          <mxGeometry x="389" y="329" width="84" height="26" as="geometry" />
        </mxCell>
        <mxCell id="SKALcGTb6-wJlBO4DA7Z-3" value="" style="endArrow=open;endSize=12;dashed=1;html=1;rounded=0;exitX=1;exitY=0;exitDx=0;exitDy=0;" edge="1" parent="ckZpL8dPmvNHeQL6rXLR-1" source="ckZpL8dPmvNHeQL6rXLR-13">
          <mxGeometry width="160" relative="1" as="geometry">
            <mxPoint x="354" y="206.5" as="sourcePoint" />
            <mxPoint x="514" y="206.5" as="targetPoint" />
          </mxGeometry>
        </mxCell>
        <mxCell id="SKALcGTb6-wJlBO4DA7Z-4" value="" style="endArrow=open;endSize=12;dashed=1;html=1;rounded=0;exitX=0.935;exitY=0.82;exitDx=0;exitDy=0;exitPerimeter=0;" edge="1" parent="ckZpL8dPmvNHeQL6rXLR-1" source="ckZpL8dPmvNHeQL6rXLR-13">
          <mxGeometry width="160" relative="1" as="geometry">
            <mxPoint x="354" y="347.5" as="sourcePoint" />
            <mxPoint x="514" y="347.5" as="targetPoint" />
          </mxGeometry>
        </mxCell>
        <mxCell id="ckZpL8dPmvNHeQL6rXLR-8" value="Guest" style="shape=umlActor;verticalLabelPosition=bottom;verticalAlign=top;html=1;outlineConnect=0;" vertex="1" parent="1">
          <mxGeometry x="-189" y="276" width="30" height="60" as="geometry" />
        </mxCell>
        <mxCell id="ckZpL8dPmvNHeQL6rXLR-17" value="" style="endArrow=none;html=1;rounded=0;entryX=0;entryY=0.5;entryDx=0;entryDy=0;" edge="1" parent="1" target="ckZpL8dPmvNHeQL6rXLR-13">
          <mxGeometry width="50" height="50" relative="1" as="geometry">
            <mxPoint x="-143" y="311" as="sourcePoint" />
            <mxPoint x="-98" y="261" as="targetPoint" />
          </mxGeometry>
        </mxCell>
        <mxCell id="ckZpL8dPmvNHeQL6rXLR-18" value="" style="endArrow=none;html=1;rounded=0;entryX=0;entryY=0.5;entryDx=0;entryDy=0;" edge="1" parent="1" target="ckZpL8dPmvNHeQL6rXLR-12">
          <mxGeometry width="50" height="50" relative="1" as="geometry">
            <mxPoint x="-146" y="311" as="sourcePoint" />
            <mxPoint x="-85" y="241" as="targetPoint" />
          </mxGeometry>
        </mxCell>
        <mxCell id="ckZpL8dPmvNHeQL6rXLR-19" value="" style="endArrow=none;html=1;rounded=0;entryX=0.012;entryY=0.403;entryDx=0;entryDy=0;entryPerimeter=0;" edge="1" parent="1" target="ckZpL8dPmvNHeQL6rXLR-14">
          <mxGeometry width="50" height="50" relative="1" as="geometry">
            <mxPoint x="-144" y="311" as="sourcePoint" />
            <mxPoint x="-84" y="321" as="targetPoint" />
          </mxGeometry>
        </mxCell>
        <mxCell id="SKALcGTb6-wJlBO4DA7Z-1" value="&amp;lt;&amp;lt;include&amp;gt;&amp;gt;" style="text;html=1;align=center;verticalAlign=middle;resizable=0;points=[];autosize=1;strokeColor=none;fillColor=none;" vertex="1" parent="1">
          <mxGeometry x="375" y="262" width="84" height="26" as="geometry" />
        </mxCell>
      </root>
    </mxGraphModel>
  </diagram>
</mxfile>
